<svg width="16456" height="2941" viewBox="0 0 16456 2941" fill="none" xmlns="http://www.w3.org/2000/svg">
    <path d="M1217.43 52.2125H1623.24V458.024H1217.43V52.2125Z" fill="url(#paint0_linear_711_13)"/>
    <path d="M811.622 458.024H1217.43V863.835H811.622V458.024Z" fill="url(#paint1_linear_711_13)"/>
    <path d="M405.811 863.835H811.622V1269.65H405.811V863.835Z" fill="url(#paint2_linear_711_13)"/>
    <path d="M0 1269.65H405.811V1675.46H0V1269.65Z" fill="url(#paint3_linear_711_13)"/>
    <path d="M405.811 1675.46H811.622V2081.27H405.811V1675.46Z" fill="url(#paint4_linear_711_13)"/>
    <path d="M811.622 2081.27H1217.43V2487.08H811.622V2081.27Z" fill="url(#paint5_linear_711_13)"/>
    <path d="M1217.43 2487.08H1623.24V2892.89H1217.43V2487.08Z" fill="url(#paint6_linear_711_13)"/>
    <path d="M2395.49 0L2632.35 46.8868L2059.54 2940.57L1822.68 2893.69L2395.49 0Z" fill="url(#paint7_linear_711_13)"/>
    <path d="M12680.6 1477.81L12681.6 1072L13087.4 1073L13086.4 1478.81L12680.6 1477.81Z" fill="url(#paint8_linear_711_13)"/>
    <path d="M13084.4 1883.62L13085.4 1477.81L13491.2 1478.81L13490.2 1884.62L13084.4 1883.62Z" fill="url(#paint9_linear_711_13)"/>
    <path d="M13489.2 2290.43L13490.2 1884.62L13896 1885.62L13895 2291.43L13489.2 2290.43Z" fill="url(#paint10_linear_711_13)"/>
    <path d="M13896 1885.62L13898 1480.82L14303.8 1481.82L14302.8 1887.63L13896 1885.62Z" fill="url(#paint11_linear_711_13)"/>
    <path d="M14303.8 1481.82L14304.8 1076.01L14710.6 1077.01L14709.6 1482.82L14303.8 1481.82Z" fill="url(#paint12_linear_711_13)"/>
    <path d="M15238.1 2892.68L14832.3 2892.8L14832.2 2486.98L15238 2486.87L15238.1 2892.68Z" fill="url(#paint13_linear_711_13)"/>
    <path d="M15643.8 2486.76L15238 2486.87L15237.9 2081.06L15643.7 2080.95L15643.8 2486.76Z" fill="url(#paint14_linear_711_13)"/>
    <path d="M16049.5 2080.84L15643.7 2080.95L15643.6 1675.14L16049.4 1675.03L16049.5 2080.84Z" fill="url(#paint15_linear_711_13)"/>
    <path d="M16455.2 1674.92L16049.4 1675.03L16049.3 1269.22L16455.1 1269.1L16455.2 1674.92Z" fill="url(#paint16_linear_711_13)"/>
    <path d="M16049.3 1269.22L15643.5 1269.33L15643.3 863.517L16049.2 863.405L16049.3 1269.22Z" fill="url(#paint17_linear_711_13)"/>
    <path d="M15643.3 863.517L15237.5 863.628L15237.4 457.817L15643.2 457.705L15643.3 863.517Z" fill="url(#paint18_linear_711_13)"/>
    <path d="M15237.4 457.817L14831.6 457.929L14831.5 52.1174L15237.3 52.0059L15237.4 457.817Z" fill="url(#paint19_linear_711_13)"/>
    <path d="M3909.57 2055.3V2284.18H3006.24V689.344H3259.46V2055.3H3909.57Z" fill="black"/>
    <path d="M4885.95 2284.18L4881.08 2198.96C4751.22 2272.01 4645.71 2308.53 4564.55 2308.53C4433.07 2308.53 4337.3 2271.2 4277.24 2196.53C4217.18 2120.23 4187.15 1999.3 4187.15 1833.73V1127.62H4437.94V1819.12C4437.94 1986.32 4492.32 2069.91 4601.07 2069.91C4687.11 2069.91 4779.63 2036.64 4878.65 1970.08V1127.62H5129.44V2284.18H4885.95Z" fill="black"/>
    <path d="M6069.3 1548.85V1349.19C6031.96 1342.7 5995.44 1339.45 5959.73 1339.45C5859.09 1339.45 5788.48 1368.67 5747.9 1427.11C5708.94 1485.55 5689.46 1578.07 5689.46 1704.68C5689.46 1831.3 5709.75 1925.44 5750.33 1987.13C5792.54 2047.19 5865.58 2077.22 5969.47 2077.22C6073.36 2077.22 6179.68 2062.61 6288.44 2033.39L6324.96 2267.14C6211.33 2299.6 6089.59 2315.83 5959.73 2315.83C5599.37 2315.83 5419.19 2112.93 5419.19 1707.12C5419.19 1497.72 5459.77 1345.13 5540.93 1249.36C5623.72 1151.97 5760.88 1103.27 5952.43 1103.27C6075.79 1103.27 6194.29 1118.69 6307.92 1149.53V1548.85H6069.3Z" fill="black"/>
    <path d="M7018.9 2074.78C7064.35 2074.78 7114.67 2064.23 7169.86 2043.13C7225.05 2022.03 7268.88 1998.49 7301.34 1972.52V1802.08C7203.95 1793.96 7124.41 1789.9 7062.72 1789.9C6928 1789.9 6860.63 1840.22 6860.63 1940.87C6860.63 2030.14 6913.39 2074.78 7018.9 2074.78ZM6979.94 2310.97C6720.22 2310.97 6590.36 2187.6 6590.36 1940.87C6590.36 1809.38 6631.75 1717.67 6714.54 1665.73C6798.95 1612.16 6915.01 1585.37 7062.72 1585.37C7132.52 1585.37 7212.06 1589.43 7301.34 1597.55C7301.34 1500.15 7287.54 1433.6 7259.95 1397.89C7232.35 1362.18 7184.47 1344.32 7116.29 1344.32C7048.12 1344.32 6968.58 1352.44 6877.67 1368.67C6786.77 1384.9 6716.97 1401.14 6668.28 1417.37L6622.01 1186.06C6792.45 1134.11 6958.84 1108.14 7121.16 1108.14C7283.49 1108.14 7395.49 1143.85 7457.17 1215.28C7520.48 1286.7 7552.13 1407.63 7552.13 1578.07V2072.35L7578.92 2286.62L7328.13 2310.97L7303.78 2198.96C7167.42 2273.63 7059.48 2310.97 6979.94 2310.97Z" fill="black"/>
    <path d="M7863.8 2230.61L7917.36 2009.04C8071.57 2057.74 8194.13 2082.09 8285.03 2082.09C8375.93 2082.09 8437.61 2073.16 8470.08 2055.3C8502.54 2039.07 8518.77 2009.85 8518.77 1967.65C8518.77 1925.44 8504.17 1895.41 8474.95 1877.56C8445.73 1859.7 8390.54 1841.04 8309.38 1821.56C8148.68 1782.6 8036.67 1739.58 7973.36 1692.51C7910.06 1643.81 7878.4 1565.08 7878.4 1456.33C7878.4 1224.2 8027.74 1108.14 8326.42 1108.14C8454.66 1108.14 8603.18 1129.24 8772 1171.45L8725.74 1402.76C8565.04 1357.31 8440.86 1334.58 8353.2 1334.58C8265.55 1334.58 8206.3 1342.7 8175.46 1358.93C8146.24 1373.54 8131.63 1399.51 8131.63 1436.85C8131.63 1474.18 8146.24 1501.78 8175.46 1519.63C8206.3 1535.87 8284.22 1561.03 8409.21 1595.11C8534.2 1629.2 8625.91 1668.97 8684.35 1714.42C8742.78 1758.25 8772 1833.73 8772 1940.87C8772 2185.98 8621.04 2308.53 8319.12 2308.53C8177.89 2308.53 8026.12 2282.56 7863.8 2230.61Z" fill="black"/>
    <path d="M9154.28 1256.67C9237.06 1157.65 9364.49 1108.14 9536.55 1108.14C9708.61 1108.14 9836.04 1157.65 9918.82 1256.67C10001.6 1354.06 10043 1505.02 10043 1709.55C10043 1914.08 10001.6 2066.67 9918.82 2167.31C9836.04 2266.33 9708.61 2315.83 9536.55 2315.83C9364.49 2315.83 9237.06 2266.33 9154.28 2167.31C9071.49 2066.67 9030.1 1914.08 9030.1 1709.55C9030.1 1505.02 9071.49 1354.06 9154.28 1256.67ZM9349.06 1429.54C9316.6 1486.36 9300.37 1579.69 9300.37 1709.55C9300.37 1839.41 9317.41 1933.56 9351.5 1992C9385.59 2050.43 9447.27 2079.65 9536.55 2079.65C9625.83 2079.65 9687.51 2050.43 9721.6 1992C9755.69 1933.56 9772.73 1839.41 9772.73 1709.55C9772.73 1579.69 9755.69 1486.36 9721.6 1429.54C9689.13 1372.73 9627.45 1344.32 9536.55 1344.32C9445.65 1344.32 9383.15 1372.73 9349.06 1429.54Z" fill="black"/>
    <path d="M10237.8 2284.18V689.344H10617.6C10745.9 689.344 10848.9 699.895 10926.9 720.997C11006.4 742.099 11073.8 781.869 11129 840.305C11184.1 898.742 11223.1 979.905 11245.8 1083.79C11268.6 1186.06 11279.9 1332.15 11279.9 1522.07C11279.9 1710.36 11256.4 1862.14 11209.3 1977.39C11163.9 2092.64 11094.9 2172.99 11002.3 2218.44C10909.8 2262.27 10780 2284.18 10612.8 2284.18H10237.8ZM10924.4 1960.34C10961.8 1918.14 10986.9 1860.51 10999.9 1787.47C11014.5 1712.8 11021.8 1612.16 11021.8 1485.55C11021.8 1357.31 11016.1 1256.67 11004.8 1183.62C10993.4 1110.58 10969.1 1052.95 10931.7 1010.75C10896 966.919 10851.4 939.323 10797.8 927.961C10744.2 914.975 10668 908.482 10568.9 908.482H10491V2065.04H10564.1C10658.2 2065.04 10732.1 2058.55 10785.6 2045.56C10840.8 2030.96 10887.1 2002.55 10924.4 1960.34Z" fill="black"/>
    <path d="M11482 1707.12C11482 1510.71 11525.8 1362.18 11613.5 1261.54C11701.1 1159.27 11822.9 1108.14 11978.7 1108.14C12134.6 1108.14 12254.7 1154.4 12339.1 1246.93C12425.1 1337.83 12469.8 1471.75 12473 1648.68L12463.3 1828.86H11752.3C11766.9 2004.17 11854.5 2091.83 12015.2 2091.83C12127.2 2091.83 12245.7 2071.54 12370.7 2030.96L12421.9 2242.79C12369.9 2260.64 12302.6 2276.07 12219.8 2289.05C12137 2303.66 12068.8 2310.97 12015.2 2310.97C11659.8 2310.97 11482 2109.68 11482 1707.12ZM11988.5 1334.58C11912.2 1334.58 11854.5 1357.31 11815.6 1402.76C11778.2 1446.59 11757.1 1520.44 11752.3 1624.33H12202.7C12202.7 1431.17 12131.3 1334.58 11988.5 1334.58Z" fill="black"/>
    <defs>
    <linearGradient id="paint0_linear_711_13" x1="608.717" y1="507.264" x2="2333.41" y2="2637.77" gradientUnits="userSpaceOnUse">
    <stop stop-color="#8A06D7"/>
    <stop offset="0.43156" stop-color="#BC0DDE"/>
    <stop offset="1" stop-color="#EE387A"/>
    </linearGradient>
    <linearGradient id="paint1_linear_711_13" x1="608.717" y1="507.264" x2="2333.41" y2="2637.77" gradientUnits="userSpaceOnUse">
    <stop stop-color="#8A06D7"/>
    <stop offset="0.43156" stop-color="#BC0DDE"/>
    <stop offset="1" stop-color="#EE387A"/>
    </linearGradient>
    <linearGradient id="paint2_linear_711_13" x1="608.717" y1="507.264" x2="2333.41" y2="2637.77" gradientUnits="userSpaceOnUse">
    <stop stop-color="#8A06D7"/>
    <stop offset="0.43156" stop-color="#BC0DDE"/>
    <stop offset="1" stop-color="#EE387A"/>
    </linearGradient>
    <linearGradient id="paint3_linear_711_13" x1="608.717" y1="507.264" x2="2333.41" y2="2637.77" gradientUnits="userSpaceOnUse">
    <stop stop-color="#8A06D7"/>
    <stop offset="0.43156" stop-color="#BC0DDE"/>
    <stop offset="1" stop-color="#EE387A"/>
    </linearGradient>
    <linearGradient id="paint4_linear_711_13" x1="608.717" y1="507.264" x2="2333.41" y2="2637.77" gradientUnits="userSpaceOnUse">
    <stop stop-color="#8A06D7"/>
    <stop offset="0.43156" stop-color="#BC0DDE"/>
    <stop offset="1" stop-color="#EE387A"/>
    </linearGradient>
    <linearGradient id="paint5_linear_711_13" x1="608.717" y1="507.264" x2="2333.41" y2="2637.77" gradientUnits="userSpaceOnUse">
    <stop stop-color="#8A06D7"/>
    <stop offset="0.43156" stop-color="#BC0DDE"/>
    <stop offset="1" stop-color="#EE387A"/>
    </linearGradient>
    <linearGradient id="paint6_linear_711_13" x1="608.717" y1="507.264" x2="2333.41" y2="2637.77" gradientUnits="userSpaceOnUse">
    <stop stop-color="#8A06D7"/>
    <stop offset="0.43156" stop-color="#BC0DDE"/>
    <stop offset="1" stop-color="#EE387A"/>
    </linearGradient>
    <linearGradient id="paint7_linear_711_13" x1="608.717" y1="507.264" x2="2333.41" y2="2637.77" gradientUnits="userSpaceOnUse">
    <stop stop-color="#8A06D7"/>
    <stop offset="0.43156" stop-color="#BC0DDE"/>
    <stop offset="1" stop-color="#EE387A"/>
    </linearGradient>
    <linearGradient id="paint8_linear_711_13" x1="17145.5" y1="101.453" x2="16739.7" y2="2840.68" gradientUnits="userSpaceOnUse">
    <stop offset="0.265554" stop-color="#8A06D7"/>
    <stop offset="0.580678" stop-color="#BC0DDE"/>
    <stop offset="1" stop-color="#EE387A"/>
    </linearGradient>
    <linearGradient id="paint9_linear_711_13" x1="17145.5" y1="101.453" x2="16739.7" y2="2840.68" gradientUnits="userSpaceOnUse">
    <stop offset="0.265554" stop-color="#8A06D7"/>
    <stop offset="0.580678" stop-color="#BC0DDE"/>
    <stop offset="1" stop-color="#EE387A"/>
    </linearGradient>
    <linearGradient id="paint10_linear_711_13" x1="17145.5" y1="101.453" x2="16739.7" y2="2840.68" gradientUnits="userSpaceOnUse">
    <stop offset="0.265554" stop-color="#8A06D7"/>
    <stop offset="0.580678" stop-color="#BC0DDE"/>
    <stop offset="1" stop-color="#EE387A"/>
    </linearGradient>
    <linearGradient id="paint11_linear_711_13" x1="17145.5" y1="101.453" x2="16739.7" y2="2840.68" gradientUnits="userSpaceOnUse">
    <stop offset="0.265554" stop-color="#8A06D7"/>
    <stop offset="0.580678" stop-color="#BC0DDE"/>
    <stop offset="1" stop-color="#EE387A"/>
    </linearGradient>
    <linearGradient id="paint12_linear_711_13" x1="17145.5" y1="101.453" x2="16739.7" y2="2840.68" gradientUnits="userSpaceOnUse">
    <stop offset="0.265554" stop-color="#8A06D7"/>
    <stop offset="0.580678" stop-color="#BC0DDE"/>
    <stop offset="1" stop-color="#EE387A"/>
    </linearGradient>
    <linearGradient id="paint13_linear_711_13" x1="17145.5" y1="101.453" x2="16739.7" y2="2840.68" gradientUnits="userSpaceOnUse">
    <stop offset="0.265554" stop-color="#8A06D7"/>
    <stop offset="0.580678" stop-color="#BC0DDE"/>
    <stop offset="1" stop-color="#EE387A"/>
    </linearGradient>
    <linearGradient id="paint14_linear_711_13" x1="17145.5" y1="101.453" x2="16739.7" y2="2840.68" gradientUnits="userSpaceOnUse">
    <stop offset="0.265554" stop-color="#8A06D7"/>
    <stop offset="0.580678" stop-color="#BC0DDE"/>
    <stop offset="1" stop-color="#EE387A"/>
    </linearGradient>
    <linearGradient id="paint15_linear_711_13" x1="17145.5" y1="101.453" x2="16739.7" y2="2840.68" gradientUnits="userSpaceOnUse">
    <stop offset="0.265554" stop-color="#8A06D7"/>
    <stop offset="0.580678" stop-color="#BC0DDE"/>
    <stop offset="1" stop-color="#EE387A"/>
    </linearGradient>
    <linearGradient id="paint16_linear_711_13" x1="17145.5" y1="101.453" x2="16739.7" y2="2840.68" gradientUnits="userSpaceOnUse">
    <stop offset="0.265554" stop-color="#8A06D7"/>
    <stop offset="0.580678" stop-color="#BC0DDE"/>
    <stop offset="1" stop-color="#EE387A"/>
    </linearGradient>
    <linearGradient id="paint17_linear_711_13" x1="17145.5" y1="101.453" x2="16739.7" y2="2840.68" gradientUnits="userSpaceOnUse">
    <stop offset="0.265554" stop-color="#8A06D7"/>
    <stop offset="0.580678" stop-color="#BC0DDE"/>
    <stop offset="1" stop-color="#EE387A"/>
    </linearGradient>
    <linearGradient id="paint18_linear_711_13" x1="17145.5" y1="101.453" x2="16739.7" y2="2840.68" gradientUnits="userSpaceOnUse">
    <stop offset="0.265554" stop-color="#8A06D7"/>
    <stop offset="0.580678" stop-color="#BC0DDE"/>
    <stop offset="1" stop-color="#EE387A"/>
    </linearGradient>
    <linearGradient id="paint19_linear_711_13" x1="17145.5" y1="101.453" x2="16739.7" y2="2840.68" gradientUnits="userSpaceOnUse">
    <stop offset="0.265554" stop-color="#8A06D7"/>
    <stop offset="0.580678" stop-color="#BC0DDE"/>
    <stop offset="1" stop-color="#EE387A"/>
    </linearGradient>
    </defs>
    </svg>
    